<?xml version="1.0" encoding="UTF-8"?>
<!DOCTYPE svg PUBLIC "-//W3C//DTD SVG 1.1//EN" "http://www.w3.org/Graphics/SVG/1.1/DTD/svg11.dtd">
<svg xmlns="http://www.w3.org/2000/svg" version="1.1" width="500px" height="500px" style="shape-rendering:geometricPrecision; text-rendering:geometricPrecision; image-rendering:optimizeQuality; fill-rule:evenodd; clip-rule:evenodd" xmlns:xlink="http://www.w3.org/1999/xlink">
<g><path style="opacity:1" fill="#fefefe" d="M -0.5,-0.5 C 166.167,-0.5 332.833,-0.5 499.5,-0.5C 499.5,166.167 499.5,332.833 499.5,499.5C 332.833,499.5 166.167,499.5 -0.5,499.5C -0.5,332.833 -0.5,166.167 -0.5,-0.5 Z"/></g>
<g><path style="opacity:1" fill="#ae851f" d="M 265.5,158.5 C 284.836,158.333 304.17,158.5 323.5,159C 325.667,159.833 327.167,161.333 328,163.5C 330.336,170.999 327.836,175.832 320.5,178C 303.167,178.667 285.833,178.667 268.5,178C 261.164,175.832 258.664,170.999 261,163.5C 262.059,161.341 263.559,159.674 265.5,158.5 Z"/></g>
<g><path style="opacity:1" fill="#fcfaf6" d="M 268.5,164.5 C 285.837,164.333 303.17,164.5 320.5,165C 322.698,166.67 323.032,168.67 321.5,171C 303.491,171.833 285.491,171.666 267.5,170.5C 266.15,168.217 266.483,166.217 268.5,164.5 Z"/></g>
<g><path style="opacity:1" fill="#d5c18c" d="M 189.5,173.5 C 209.169,173.333 228.836,173.5 248.5,174C 253.155,176.897 254.655,181.063 253,186.5C 251.74,189.428 249.573,191.261 246.5,192C 227.833,192.667 209.167,192.667 190.5,192C 186.614,190.063 184.947,186.897 185.5,182.5C 185.667,180.833 185.833,179.167 186,177.5C 187.376,176.295 188.542,174.962 189.5,173.5 Z"/></g>
<g><path style="opacity:1" fill="#fdfcfa" d="M 192.5,179.5 C 210.503,179.333 228.503,179.5 246.5,180C 247.935,182.267 247.602,184.267 245.5,186C 227.833,186.667 210.167,186.667 192.5,186C 191.232,183.837 191.232,181.67 192.5,179.5 Z"/></g>
<g><path style="opacity:1" fill="#b08825" d="M 266.5,185.5 C 285.17,185.333 303.836,185.5 322.5,186C 328.172,188.768 330.006,193.268 328,199.5C 326.74,202.428 324.573,204.261 321.5,205C 303.167,205.667 284.833,205.667 266.5,205C 260.891,201.723 259.058,196.89 261,190.5C 262.73,188.598 264.563,186.931 266.5,185.5 Z"/></g>
<g><path style="opacity:1" fill="#fefefd" d="M 267.5,192.5 C 285.503,192.333 303.503,192.5 321.5,193C 322.833,194.667 322.833,196.333 321.5,198C 303.5,198.667 285.5,198.667 267.5,198C 266.248,196.172 266.248,194.339 267.5,192.5 Z"/></g>
<g><path style="opacity:1" fill="#d5c08a" d="M 189.5,200.5 C 209.169,200.333 228.836,200.5 248.5,201C 253.153,203.942 254.653,208.109 253,213.5C 252.315,216.057 250.815,217.891 248.5,219C 229.167,219.667 209.833,219.667 190.5,219C 186.765,217.2 185.098,214.2 185.5,210C 185.339,206.16 186.672,202.994 189.5,200.5 Z"/></g>
<g><path style="opacity:1" fill="#fdfcfa" d="M 192.5,206.5 C 210.17,206.333 227.836,206.5 245.5,207C 248.167,209 248.167,211 245.5,213C 227.833,213.667 210.167,213.667 192.5,213C 191.232,210.837 191.232,208.67 192.5,206.5 Z"/></g>
<g><path style="opacity:1" fill="#b08825" d="M 266.5,211.5 C 285.17,211.333 303.836,211.5 322.5,212C 328.234,215.18 330.067,220.013 328,226.5C 326.457,228.378 324.624,229.878 322.5,231C 303.833,231.667 285.167,231.667 266.5,231C 260.458,227.252 258.958,222.085 262,215.5C 263.397,213.93 264.897,212.596 266.5,211.5 Z"/></g>
<g><path style="opacity:1" fill="#fefefd" d="M 267.5,218.5 C 285.503,218.333 303.503,218.5 321.5,219C 322.833,220.667 322.833,222.333 321.5,224C 303.5,224.667 285.5,224.667 267.5,224C 266.248,222.172 266.248,220.339 267.5,218.5 Z"/></g>
<g><path style="opacity:1" fill="#d5c08a" d="M 190.5,226.5 C 209.503,226.333 228.503,226.5 247.5,227C 253.025,229.919 254.858,234.419 253,240.5C 252.167,242.667 250.667,244.167 248.5,245C 228.833,245.667 209.167,245.667 189.5,245C 185.633,241.34 184.466,236.84 186,231.5C 187.025,229.313 188.525,227.646 190.5,226.5 Z"/></g>
<g><path style="opacity:1" fill="#fdfcfa" d="M 192.5,232.5 C 210.17,232.333 227.836,232.5 245.5,233C 247.602,234.733 247.935,236.733 246.5,239C 228.5,239.667 210.5,239.667 192.5,239C 191.232,236.837 191.232,234.67 192.5,232.5 Z"/></g>
<g><path style="opacity:1" fill="#ad841d" d="M 117.5,283.5 C 119.688,278.141 122.188,272.808 125,267.5C 125.739,266.426 126.739,265.759 128,265.5C 133.205,271.238 136.872,277.905 139,285.5C 140.268,280.363 141.934,275.363 144,270.5C 147.165,264.437 151.665,263.104 157.5,266.5C 165.798,265.56 174.131,265.226 182.5,265.5C 182.5,266.833 182.5,268.167 182.5,269.5C 178.416,269.043 174.583,269.71 171,271.5C 167.495,280.683 163.995,289.85 160.5,299C 155.671,300.338 153.338,298.504 153.5,293.5C 155.298,286.106 157.298,278.773 159.5,271.5C 157.076,271.192 154.743,271.526 152.5,272.5C 148.646,281.571 145.312,290.737 142.5,300C 139.975,300.896 137.808,300.396 136,298.5C 133.205,292.612 130.705,286.612 128.5,280.5C 126.433,286.533 124.267,292.533 122,298.5C 118.617,299.223 116.117,297.889 114.5,294.5C 115.71,290.872 116.71,287.206 117.5,283.5 Z"/></g>
<g><path style="opacity:1" fill="#ae851f" d="M 419.5,263.5 C 423.247,263.392 426.914,263.892 430.5,265C 435.535,268.013 436.702,272.18 434,277.5C 430.875,280.635 427.375,283.135 423.5,285C 426.091,292.037 430.258,297.87 436,302.5C 436.456,303.744 435.956,304.577 434.5,305C 430.548,305.912 426.881,305.245 423.5,303C 419.503,297.468 416.17,291.635 413.5,285.5C 412.168,289.494 410.834,293.494 409.5,297.5C 402.525,299.356 400.025,296.689 402,289.5C 404.193,282.064 406.693,274.73 409.5,267.5C 412.688,265.554 416.021,264.221 419.5,263.5 Z"/></g>
<g><path style="opacity:1" fill="#ad841e" d="M 450.5,264.5 C 455.844,264.334 461.177,264.501 466.5,265C 467.337,266.011 467.67,267.178 467.5,268.5C 461.501,269.556 455.501,270.723 449.5,272C 448.62,273.356 448.286,274.856 448.5,276.5C 451.518,276.335 454.518,276.502 457.5,277C 458.337,278.011 458.67,279.178 458.5,280.5C 454.414,280.884 450.414,281.717 446.5,283C 444.89,285.311 443.557,287.811 442.5,290.5C 443,290.833 443.5,291.167 444,291.5C 450.659,289.1 457.492,288.267 464.5,289C 465.833,290 465.833,291 464.5,292C 454.875,296.214 444.875,298.548 434.5,299C 432.848,297.53 431.848,295.697 431.5,293.5C 433.697,285.409 436.197,277.409 439,269.5C 442.36,266.553 446.194,264.887 450.5,264.5 Z"/></g>
<g><path style="opacity:1" fill="#ae851f" d="M 196.5,264.5 C 198.806,264.993 201.139,265.326 203.5,265.5C 201.216,276.767 200.883,288.1 202.5,299.5C 195.725,300.956 192.058,298.289 191.5,291.5C 188.413,291.457 185.413,291.29 182.5,291C 180.688,294.134 178.521,296.968 176,299.5C 173.447,298.777 171.28,297.444 169.5,295.5C 176.876,283.745 185.876,273.411 196.5,264.5 Z"/></g>
<g><path style="opacity:1" fill="#ad841e" d="M 269.5,269.5 C 265.416,269.043 261.583,269.71 258,271.5C 254.878,280.873 251.378,290.04 247.5,299C 241.799,299.967 239.299,297.467 240,291.5C 230.675,301.545 220.842,302.045 210.5,293C 208,291.182 206.334,288.848 205.5,286C 210.269,272.25 219.935,266.25 234.5,268C 235.851,269.814 236.851,269.481 237.5,267C 248.14,265.901 258.806,265.401 269.5,265.5C 269.5,266.833 269.5,268.167 269.5,269.5 Z"/></g>
<g><path style="opacity:1" fill="#ad841e" d="M 354.5,265.5 C 361.167,265.5 367.833,265.5 374.5,265.5C 374.5,266.833 374.5,268.167 374.5,269.5C 370.416,269.043 366.583,269.71 363,271.5C 359.803,280.092 356.803,288.758 354,297.5C 349.217,300.883 346.384,299.716 345.5,294C 347.234,286.465 349.567,279.132 352.5,272C 349.167,271.667 345.833,271.333 342.5,271C 341.167,269.667 341.167,268.333 342.5,267C 346.688,266.824 350.688,266.324 354.5,265.5 Z"/></g>
<g><path style="opacity:1" fill="#ad841e" d="M 269.5,269.5 C 274.489,266.887 279.822,266.054 285.5,267C 288.215,267.875 289.548,269.708 289.5,272.5C 285.297,272.076 281.297,272.576 277.5,274C 282.557,275.945 287.057,278.779 291,282.5C 292.239,291.944 288.072,297.444 278.5,299C 272.114,300.209 266.114,299.209 260.5,296C 258.963,294.89 258.297,293.39 258.5,291.5C 262.813,291.378 266.98,292.044 271,293.5C 274.789,292.79 278.123,291.123 281,288.5C 281.749,287.365 281.583,286.365 280.5,285.5C 275.269,283.094 270.435,280.094 266,276.5C 265.176,273.16 266.343,270.827 269.5,269.5 Z"/></g>
<g><path style="opacity:1" fill="#ad841e" d="M 338.5,269.5 C 338.5,270.5 338.5,271.5 338.5,272.5C 334.958,272.187 331.625,272.521 328.5,273.5C 327.761,273.369 327.094,273.536 326.5,274C 330.5,276 334.5,278 338.5,280C 342.63,285.078 342.297,289.911 337.5,294.5C 328.315,300.641 318.982,300.974 309.5,295.5C 308.571,294.311 308.238,292.978 308.5,291.5C 312.657,291.331 316.657,291.998 320.5,293.5C 323.949,292.859 327.116,291.526 330,289.5C 330.72,287.888 330.554,286.388 329.5,285C 324.41,283.042 319.91,280.208 316,276.5C 315.08,273.692 315.913,271.525 318.5,270C 323.777,266.838 329.443,265.838 335.5,267C 336.942,267.377 337.942,268.21 338.5,269.5 Z"/></g>
<g><path style="opacity:1" fill="#ae851f" d="M 117.5,283.5 C 111.272,295.953 101.605,300.12 88.5,296C 86.3333,293.833 84.1667,291.667 82,289.5C 72.0791,301.725 61.2458,302.559 49.5,292C 46.114,288.627 45.614,284.794 48,280.5C 54.5252,270.318 63.6919,266.318 75.5,268.5C 79.8266,273.2 78.8266,276.533 72.5,278.5C 70.2525,277.594 68.2525,276.261 66.5,274.5C 63.8494,276.65 61.3494,278.983 59,281.5C 56.3867,286.41 57.5533,290.244 62.5,293C 64.5,293.667 66.5,293.667 68.5,293C 71.8333,291 75.1667,289 78.5,287C 79.7318,275.101 86.3984,268.435 98.5,267C 110.879,265.546 117.212,271.046 117.5,283.5 Z"/></g>
<g><path style="opacity:1" fill="#ae851f" d="M 384.5,266.5 C 397.004,265.509 403.17,271.176 403,283.5C 398.025,294.407 389.525,299.241 377.5,298C 373.367,294.869 369.534,291.369 366,287.5C 364.491,281.716 365.991,276.883 370.5,273C 374.877,269.975 379.544,267.808 384.5,266.5 Z"/></g>
<g><path style="opacity:1" fill="#fdfcfa" d="M 237.5,271.5 C 240.85,271.335 244.183,271.502 247.5,272C 245.808,276.074 244.308,280.24 243,284.5C 237.785,287.192 232.618,290.025 227.5,293C 218.382,293.206 215.549,289.039 219,280.5C 221.067,277.93 223.567,275.93 226.5,274.5C 229.655,279.285 233.155,279.618 237,275.5C 237.49,274.207 237.657,272.873 237.5,271.5 Z"/></g>
<g><path style="opacity:1" fill="#dbc899" d="M 338.5,269.5 C 339.434,270.568 339.768,271.901 339.5,273.5C 335.833,273.5 332.167,273.5 328.5,273.5C 331.625,272.521 334.958,272.187 338.5,272.5C 338.5,271.5 338.5,270.5 338.5,269.5 Z"/></g>
<g><path style="opacity:1" fill="#f9f6ef" d="M 417.5,271.5 C 420.187,271.336 422.854,271.503 425.5,272C 426.428,272.388 427.095,273.055 427.5,274C 424.448,277.617 420.448,279.45 415.5,279.5C 415.858,276.733 416.525,274.067 417.5,271.5 Z"/></g>
<g><path style="opacity:1" fill="#fdfcf9" d="M 101.5,274.5 C 104.32,274.248 106.986,274.748 109.5,276C 110.305,281.403 108.305,285.737 103.5,289C 94.712,295.278 90.5454,293.111 91,282.5C 93.94,278.963 97.44,276.297 101.5,274.5 Z"/></g>
<g><path style="opacity:1" fill="#fdfcf9" d="M 387.5,274.5 C 390.32,274.248 392.986,274.748 395.5,276C 396.305,281.403 394.305,285.737 389.5,289C 380.712,295.278 376.545,293.111 377,282.5C 379.94,278.963 383.44,276.297 387.5,274.5 Z"/></g>
<g><path style="opacity:1" fill="#f4eedf" d="M 190.5,280.5 C 191.461,282.265 191.795,284.265 191.5,286.5C 189.712,286.785 188.045,286.452 186.5,285.5C 188.082,283.985 189.416,282.319 190.5,280.5 Z"/></g>
</svg>
